<?xml version="1.0" encoding="UTF-8" standalone="no"?>
<!-- Created with Inkscape (http://www.inkscape.org/) -->

<svg
   version="1.1"
   id="svg2"
   width="256"
   height="256"
   viewBox="0 0 256 256"
   sodipodi:docname="Lore&amp;Duran.svg"
   inkscape:version="1.2.2 (732a01da63, 2022-12-09)"
   xmlns:inkscape="http://www.inkscape.org/namespaces/inkscape"
   xmlns:sodipodi="http://sodipodi.sourceforge.net/DTD/sodipodi-0.dtd"
   xmlns="http://www.w3.org/2000/svg"
   xmlns:svg="http://www.w3.org/2000/svg">
  <defs
     id="defs6" />
  <sodipodi:namedview
     id="namedview4"
     pagecolor="#ffffff"
     bordercolor="#000000"
     borderopacity="0.25"
     inkscape:showpageshadow="2"
     inkscape:pageopacity="0.0"
     inkscape:pagecheckerboard="0"
     inkscape:deskcolor="#d1d1d1"
     showgrid="false"
     inkscape:zoom="5.3242188"
     inkscape:cx="128"
     inkscape:cy="128"
     inkscape:window-width="3840"
     inkscape:window-height="2036"
     inkscape:window-x="-12"
     inkscape:window-y="-12"
     inkscape:window-maximized="1"
     inkscape:current-layer="g8" />
  <g
     inkscape:groupmode="layer"
     inkscape:label="Image"
     id="g8">
    <path
       style="fill:#000000;stroke-width:0.32"
       d="M 0,128 V 0 H 128 256 V 128 256 H 128 0 Z m 49.790298,26.3141 c 1.536163,-0.79299 3.207593,-2.59713 3.901094,-4.21083 0.614301,-1.4294 0.667482,-4.90251 0.100224,-6.5451 -0.235872,-0.683 -0.941654,-1.80943 -1.56841,-2.50317 -1.667868,-1.84613 -3.310281,-2.57516 -6.188966,-2.74715 -2.114288,-0.12631 -2.678093,-0.0388 -4.16,0.64546 -4.63648,2.14096 -6.380365,7.13068 -4.092371,11.70936 1.019837,2.04087 1.854579,2.81994 4.194886,3.91511 1.859763,0.87029 5.879648,0.73463 7.813543,-0.26368 z m -7.582765,-1.60509 c -4.973517,-2.59819 -4.519031,-10.1743 0.742189,-12.37203 3.78488,-1.58104 8.261398,0.66764 9.211248,4.62706 1.442662,6.01369 -4.466237,10.61152 -9.953437,7.74497 z m 72.143487,1.58244 1.80121,-0.90855 1.04389,0.72619 c 0.57413,0.3994 1.40388,0.77224 1.84388,0.82855 0.65101,0.0833 0.81761,-0.0486 0.89454,-0.7081 0.0781,-0.66904 -0.0979,-0.88006 -1.00857,-1.20935 -1.67636,-0.60617 -1.94883,-1.09571 -1.30396,-2.34274 0.29821,-0.57669 0.61498,-1.95504 0.70391,-3.06299 0.13597,-1.69392 0.25657,-2.01446 0.75789,-2.01446 0.4226,0 0.59619,-0.23293 0.59619,-0.8 0,-0.78724 -0.0412,-0.8 -2.58226,-0.8 -2.49486,0 -2.57879,0.0243 -2.48,0.72 0.0732,0.51552 0.35218,0.74876 0.98226,0.82125 0.83599,0.0962 0.87928,0.18421 0.86557,1.76 -0.008,0.91231 -0.18958,2.0687 -0.40365,2.56975 l -0.38921,0.91099 -3.89207,-3.54241 c -2.14063,-1.94833 -3.98297,-3.82883 -4.09408,-4.17891 -0.697,-2.19607 3.18212,-3.25149 6.6089,-1.79813 0.36502,0.15481 0.64683,0.019 0.88537,-0.42673 0.30323,-0.56658 0.21882,-0.72161 -0.63266,-1.16193 -1.22277,-0.63232 -3.71777,-0.94585 -5.24573,-0.6592 -0.63587,0.11929 -1.65704,0.6567 -2.26928,1.19425 -0.93697,0.82268 -1.11316,1.18877 -1.11316,2.31302 0,0.7346 0.225,1.65687 0.49999,2.04948 0.47437,0.67727 0.44344,0.76718 -0.6039,1.75494 -1.9707,1.85861 -2.1649,5.00044 -0.42748,6.91584 1.93012,2.12784 5.90217,2.59286 8.96241,1.04924 z M 108.16,153.05756 c -0.67581,-0.3485 -1.35847,-1.06587 -1.72129,-1.80882 -0.51528,-1.05514 -0.54771,-1.41005 -0.22676,-2.48129 0.20598,-0.68752 0.72918,-1.48242 1.16265,-1.76645 0.76613,-0.50198 0.83546,-0.47598 2.48239,0.93104 0.93183,0.79609 2.4003,2.08667 3.26327,2.86797 l 1.56902,1.42053 -0.90372,0.59214 c -1.29764,0.85024 -4.20612,0.97685 -5.62556,0.24488 z M 162.88961,154.48 C 165.72247,153.04888 166.4,150.93049 166.4,143.50425 V 138.56 h -0.92948 -0.92948 l -0.11052,5.84 c -0.0974,5.14386 -0.18681,5.96919 -0.75052,6.92381 -1.7646,2.98827 -6.58133,3.00925 -8.30911,0.0362 -0.57694,-0.99276 -0.66287,-1.78349 -0.7563,-6.96 l -0.10542,-5.84 h -0.96456 -0.96456 l 0.11705,6 c 0.10467,5.36526 0.18887,6.13541 0.79592,7.28 0.37338,0.704 0.95048,1.52562 1.28245,1.82581 1.83092,1.65571 5.68321,2.04226 8.11414,0.81419 z M 29.44,154.08 v -0.8 h -4 -4 v -7.36 -7.36 h -0.96 -0.96 v 8.16 8.16 h 4.96 4.96 z m 35.84,-2.72 v -3.52 h 2.16921 2.169209 l 2.207117,3.52 c 2.088832,3.33135 2.264125,3.52 3.27079,3.52 0.585021,0 1.063674,-0.0654 1.063674,-0.1454 0,-0.08 -0.94312,-1.59876 -2.095824,-3.37507 -1.152701,-1.77631 -2.165075,-3.41012 -2.249715,-3.63069 -0.08788,-0.22901 0.331641,-0.63257 0.978013,-0.94081 3.339766,-1.59262 3.108697,-6.30182 -0.382196,-7.78927 -0.688956,-0.29356 -2.356844,-0.43876 -5.04,-0.43876 H 63.36 v 8.16 8.16 h 0.96 0.96 z m 0,-8.32 v -2.93997 l 3.174938,0.10998 c 2.838313,0.0983 3.262416,0.19224 4,0.88577 0.594467,0.55896 0.825062,1.10234 0.825062,1.94422 0,0.84188 -0.230595,1.38526 -0.825062,1.94422 -0.737584,0.69353 -1.161687,0.78744 -4,0.88577 L 65.28,145.97997 Z m 30.4,11.04 v -0.8 h -4.32 -4.32 v -3.04 -3.04 h 3.68 3.68 v -0.8 -0.8 h -3.68 -3.68 v -2.72 -2.72 h 4.16 4.16 v -0.8 -0.8 h -5.12 -5.12 v 8.16 8.16 h 5.28 5.28 z m 42.59977,0.30756 c 2.26534,-0.7967 3.58612,-1.86105 4.58355,-3.69367 1.23926,-2.27691 1.32725,-5.7511 0.20107,-7.93879 -1.70257,-3.30738 -3.81917,-4.1951 -10.00247,-4.1951 H 128.96 v 8.16 8.16 h 3.95977 c 2.74434,0 4.38956,-0.15115 5.36,-0.49244 z M 130.88,146.7209 v -6.6317 l 3.44,0.11985 c 4.21132,0.14671 5.60249,0.73175 6.78588,2.85371 0.61372,1.10047 0.78408,1.86572 0.77767,3.49321 -0.011,2.78788 -0.87677,4.46834 -2.91862,5.66494 -1.33408,0.78182 -1.91054,0.90312 -4.80054,1.0101 l -3.28439,0.12158 z m 46.72,4.62508 v -3.53402 l 2.30183,0.094 2.30183,0.094 2.11529,3.36 c 2.02804,3.22141 2.1654,3.36418 3.33017,3.46123 0.93733,0.0781 1.15656,0.005 0.95957,-0.32 -0.14042,-0.23168 -1.24187,-1.92167 -2.44767,-3.75554 l -2.19236,-3.33432 0.91153,-0.38327 c 2.30029,-0.96719 3.45384,-3.72407 2.43281,-5.81418 -1.01721,-2.0823 -2.64139,-2.65392 -7.5408,-2.65392 H 175.68 v 8.16 8.16 h 0.96 0.96 z m 0,-8.30598 v -2.88 h 2.73028 c 4.28239,0 5.95811,1.11424 5.4124,3.59887 -0.34578,1.57431 -1.74762,2.15854 -5.18268,2.15993 l -2.96,0.001 z m 22.09868,9.12 1.09031,-2.72 h 3.88661 3.88662 l 1.13449,2.64 c 1.05524,2.45555 1.2063,2.64723 2.16215,2.7435 0.77259,0.0778 0.98527,-0.007 0.85689,-0.34149 -0.0939,-0.24475 -1.65854,-3.92733 -3.47694,-8.1835 L 205.93262,138.56 h -1.16898 -1.16898 l -3.3987,7.92 c -1.86928,4.356 -3.39808,8.028 -3.39733,8.16 6.4e-4,0.132 0.40825,0.24 0.90555,0.24 0.83581,0 0.98663,-0.20567 1.9945,-2.72 z M 201.6,147.67013 c 0,-0.65513 3.01759,-7.18024 3.2244,-6.9723 0.1434,0.14419 0.90008,1.81017 1.68149,3.70217 l 1.42076,3.44 h -3.16332 c -1.73983,0 -3.16333,-0.0764 -3.16333,-0.16987 z m 21.69862,0.13233 c -0.10397,-5.0774 -0.0479,-6.94939 0.19823,-6.62412 0.18873,0.24938 2.70862,3.43427 5.59975,7.07754 4.94812,6.23538 5.31901,6.62412 6.32,6.62412 h 1.0634 v -8.16 -8.16 h -1.01096 -1.01096 l 0.20748,6.89674 c 0.12341,4.10193 0.0899,6.82406 -0.0827,6.71739 -0.15961,-0.0986 -2.70447,-3.20218 -5.65524,-6.89674 -5.04323,-6.31446 -5.4287,-6.71739 -6.42633,-6.71739 H 221.44 v 8.16 8.16 h 1.00177 1.00177 z M 105.44,123.16777 c 3.00307,-2.12222 3.17307,-2.40445 4.29332,-7.12752 0.76442,-3.22284 2.42483,-6.62126 4.20613,-8.60886 1.06982,-1.19372 1.26511,-1.29539 1.67381,-0.87139 1.29523,1.34372 1.58513,5.28633 0.54674,7.43556 -0.84087,1.7404 -0.80749,2.66608 0.17637,4.89075 0.83051,1.87795 2.5439,4.60244 3.16251,5.02879 0.55195,0.3804 3.85948,0.27854 4.26951,-0.13149 0.51438,-0.51438 -0.0968,-1.22361 -1.05442,-1.22361 -1.36089,0 -3.96983,-3.78276 -3.98694,-5.78073 -0.005,-0.63657 0.26223,-0.94899 1.19297,-1.39231 3.92894,-1.8714 5.84,-4.51867 5.84,-8.08979 0,-1.10944 0.0766,-2.01717 0.17028,-2.01717 0.0936,0 0.66718,0.20762 1.27451,0.46138 2.07917,0.86873 7.29715,1.81792 9.58639,1.74384 l 2.23119,-0.0722 0.25618,1.25349 c 0.14089,0.68942 0.5348,2.06455 0.87534,3.05585 0.49097,1.42918 0.60601,2.55553 0.55558,5.44 -0.0439,2.51214 0.0756,3.98417 0.38617,4.75764 0.81392,2.0268 1.16613,2.24 3.70062,2.24 1.26339,0 2.38801,-0.0909 2.49915,-0.20207 0.36816,-0.36817 -0.38788,-1.32572 -1.29692,-1.64262 -0.58762,-0.20484 -1.15631,-0.82003 -1.65577,-1.79113 -0.72794,-1.41535 -0.75273,-1.67675 -0.57503,-6.06258 0.21188,-5.22929 0.85502,-7.70409 2.65381,-10.21173 1.42,-1.97957 4.38491,-7.918724 5.11799,-10.252084 0.53164,-1.69217 0.54376,-2.135252 0.14879,-5.44 -0.89202,-7.46369 -0.86601,-7.929863 0.60603,-10.861498 1.07719,-2.145277 1.30569,-2.924112 1.30569,-4.45047 0,-1.502103 -0.14676,-2.019021 -0.78019,-2.747975 L 152.03963,69.6 l -2.14259,2.338467 c -1.23834,1.351549 -2.72558,2.612506 -3.52396,2.987789 -1.13881,0.535306 -1.47744,0.911344 -1.92845,2.141533 -0.69476,1.89503 -0.97668,2.190569 -3.23235,3.388509 C 140.19352,80.997334 139.432,81.584 139.52,81.76 c 0.088,0.176 0.98826,0.32 2.00058,0.32 1.01233,0 1.84033,0.0756 1.84,0.16801 -0.002,0.477705 -4.79787,4.829868 -5.76058,5.227251 -1.30742,0.539667 -3.04623,0.764643 -8.96,1.159283 -9.99305,0.666867 -13.24305,2.85415 -17.83843,12.005456 -0.88379,1.76 -1.92403,4.17376 -2.31163,5.36391 -0.3876,1.19015 -1.207,2.89409 -1.82089,3.78653 -0.61389,0.89244 -1.30356,2.15375 -1.53259,2.80292 -0.22904,0.64916 -0.79809,1.7427 -1.26456,2.43008 -0.46647,0.68737 -0.9108,1.5483 -0.98741,1.91317 -0.67568,3.21797 -0.82451,4.56179 -0.63326,5.71784 0.12243,0.74005 0.2901,1.45941 0.37261,1.59857 0.22357,0.37706 1.37453,-0.0665 2.81616,-1.08525 z"
       id="path172" />
  </g>
</svg>
